<?xml version="1.0" encoding="utf-8"?>
<!-- Generator: Adobe Illustrator 26.1.0, SVG Export Plug-In . SVG Version: 6.00 Build 0)  -->
<svg version="1.1" id="레이어_1" xmlns="http://www.w3.org/2000/svg" xmlns:xlink="http://www.w3.org/1999/xlink" x="0px"
	 y="0px" viewBox="0 0 250 30" style="enable-background:new 0 0 250 30;" xml:space="preserve">
<path d="M14.5,30C11.7,30,9.3,29.3,7,28c-2.2-1.3-3.9-3.1-5.2-5.4C0.6,20.4,0,17.8,0,15s0.6-5.4,1.8-7.7C3.1,5,4.8,3.2,7,1.9
	C9.2,0.6,11.7,0,14.4,0s5.2,0.6,7.4,1.9C24,3.2,25.8,5,27,7.3c1.3,2.3,1.9,4.9,1.9,7.7s-0.6,5.4-1.9,7.7c-1.2,2.3-3,4.1-5.2,5.4
	C19.7,29.3,17.2,30,14.5,30z M14.5,26.5c2.1,0,3.9-0.5,5.5-1.5c1.7-1,3-2.4,3.9-4.1c0.9-1.8,1.4-3.8,1.4-6s-0.5-4.2-1.4-5.9
	C23,7.3,21.7,5.9,20,4.9c-1.6-1-3.5-1.5-5.6-1.5s-3.9,0.5-5.6,1.5C7.2,5.9,5.9,7.3,5,9c-0.9,1.7-1.4,3.7-1.4,5.9s0.5,4.2,1.4,6
	c0.9,1.7,2.2,3.1,3.9,4.1C10.6,26,12.4,26.5,14.5,26.5z"/>
<path d="M44,30c-2.8,0-5.2-0.6-7.4-1.9c-2.2-1.3-3.9-3.1-5.1-5.3c-1.2-2.3-1.8-4.9-1.8-7.7c0-2.9,0.6-5.4,1.8-7.7
	c1.2-2.3,2.9-4.1,5.1-5.4C38.8,0.6,41.2,0,44,0c2.3,0,4.3,0.4,6.2,1.3c1.9,0.8,3.5,2,4.8,3.5c1.3,1.5,2.2,3.1,2.6,5h-3.9
	c-0.4-1.2-1-2.3-2-3.2c-0.9-1-2.1-1.7-3.4-2.3c-1.3-0.5-2.7-0.8-4.3-0.8c-2.1,0-3.9,0.5-5.6,1.5c-1.6,1-2.9,2.3-3.9,4.1
	c-0.9,1.7-1.4,3.7-1.4,5.9s0.5,4.2,1.4,6c0.9,1.8,2.2,3.1,3.9,4.1c1.7,1,3.5,1.5,5.6,1.5c1.8,0,3.5-0.4,5-1.2
	c1.5-0.8,2.7-1.9,3.6-3.2c0.9-1.4,1.4-2.9,1.6-4.6H43.4v-3.3h14.7v1.3c0,2.8-0.6,5.2-1.9,7.4c-1.2,2.2-2.9,3.9-5.1,5.1
	C49,29.3,46.7,30,44,30z"/>
<path d="M75.1,22.2H61.9l-2.7,7.1h-3.8L66.7,0.7h3.8l11.3,28.6h-3.9L75.1,22.2z M73.8,18.9L68.5,5.1l-5.3,13.8H73.8z"/>
<path d="M86.2,0.7l10.6,19.5l10.6-19.5h3.1v28.6h-3.6V8.2l-8.8,16.3h-2.6L86.7,8.2v21.1h-3.6V0.7H86.2z"/>
<path d="M127.7,0c2,0,3.8,0.4,5.4,1.1c1.6,0.7,2.9,1.7,3.8,3c1,1.3,1.5,2.8,1.6,4.4h-3.7c-0.2-1.6-1-2.9-2.3-3.9c-1.3-1-3-1.5-5-1.5
	c-2.1,0-3.8,0.4-5,1.3c-1.2,0.8-1.8,1.9-1.8,3.2c0,1,0.3,1.8,0.9,2.5c0.6,0.6,1.4,1.2,2.6,1.7c1.2,0.5,2.8,0.9,4.9,1.4
	c3.3,0.7,5.7,1.8,7.2,3.2c1.5,1.4,2.3,3.1,2.3,5.3c0,1.7-0.5,3.1-1.4,4.4c-1,1.2-2.3,2.2-3.9,2.9c-1.7,0.7-3.5,1-5.5,1
	c-2.1,0-4-0.4-5.7-1.1c-1.7-0.8-3-1.8-4-3.2s-1.6-3-1.7-4.8h3.7c0.2,1.8,1,3.2,2.4,4.3c1.4,1.1,3.3,1.6,5.5,1.6
	c1.3,0,2.6-0.2,3.6-0.6c1.1-0.4,1.9-1,2.5-1.7c0.6-0.7,0.9-1.6,0.9-2.5c0-1-0.3-1.9-0.9-2.6c-0.6-0.7-1.5-1.3-2.7-1.8
	c-1.2-0.5-2.8-1-4.9-1.4c-3.2-0.7-5.6-1.7-7.1-3c-1.5-1.3-2.3-3.1-2.3-5.4c0-1.5,0.4-2.9,1.3-4c0.9-1.2,2.2-2.1,3.8-2.7
	C123.8,0.3,125.7,0,127.7,0z"/>
<path d="M152.3,4v25.3h-3.6V4h-9.9V0.7h23.3V4H152.3z"/>
<path d="M168,0.7V17c0,1.9,0.3,3.6,1,5c0.7,1.4,1.7,2.6,2.9,3.4c1.3,0.8,2.8,1.2,4.5,1.2c1.7,0,3.2-0.4,4.4-1.2
	c1.3-0.8,2.2-1.9,2.9-3.4c0.7-1.5,1-3.1,1-5V0.7h3.6V17c0,2.6-0.5,4.9-1.5,6.9c-1,2-2.4,3.5-4.2,4.5s-3.9,1.6-6.3,1.6
	c-2.4,0-4.5-0.5-6.3-1.6c-1.8-1.1-3.2-2.6-4.2-4.5c-1-2-1.5-4.3-1.5-6.9V0.7H168z"/>
<path d="M199.6,0.7c3.1,0,5.8,0.6,8,1.8c2.2,1.2,3.9,2.9,5.1,5c1.2,2.1,1.8,4.6,1.8,7.5c0,2.9-0.6,5.4-1.8,7.5
	c-1.2,2.1-2.9,3.8-5.1,5c-2.2,1.2-4.9,1.8-8,1.8h-9.7V15V0.7H199.6z M199.7,25.9c3.5,0,6.2-1,8.2-2.9c2-1.9,3-4.6,3-8s-1-6.2-3-8.1
	c-2-1.9-4.7-2.9-8.2-2.9h-6.2v21.9H199.7z"/>
<path d="M219.6,29.3H216V0.7h3.6V29.3z"/>
<path d="M235.6,30c-2.7,0-5.2-0.6-7.4-1.9c-2.2-1.3-3.9-3.1-5.2-5.4c-1.3-2.3-1.9-4.9-1.9-7.7s0.6-5.4,1.8-7.7
	c1.3-2.3,3-4.1,5.2-5.4c2.2-1.3,4.7-1.9,7.4-1.9c2.7,0,5.2,0.6,7.4,1.9c2.2,1.3,3.9,3.1,5.2,5.4c1.3,2.3,1.9,4.9,1.9,7.7
	s-0.6,5.4-1.9,7.7c-1.2,2.3-3,4.1-5.2,5.4C240.8,29.3,238.3,30,235.6,30z M235.6,26.5c2.1,0,3.9-0.5,5.5-1.5c1.7-1,3-2.4,3.9-4.1
	c0.9-1.8,1.4-3.8,1.4-6s-0.5-4.2-1.4-5.9c-0.9-1.8-2.2-3.1-3.9-4.1c-1.6-1-3.5-1.5-5.6-1.5c-2.1,0-3.9,0.5-5.6,1.5
	c-1.6,1-2.9,2.3-3.9,4.1c-0.9,1.7-1.4,3.7-1.4,5.9s0.5,4.2,1.4,6c0.9,1.7,2.2,3.1,3.9,4.1C231.6,26,233.5,26.5,235.6,26.5z"/>
</svg>
