<?xml version="1.0" encoding="utf-8"?>
<!-- Generator: Adobe Illustrator 26.1.0, SVG Export Plug-In . SVG Version: 6.00 Build 0)  -->
<svg version="1.1" id="레이어_1" xmlns="http://www.w3.org/2000/svg" xmlns:xlink="http://www.w3.org/1999/xlink" x="0px"
	 y="0px" viewBox="0 0 98 58" style="enable-background:new 0 0 98 58;" xml:space="preserve">
<style type="text/css">
	.st0{fill:#FFFFFF;}
	.st1{fill-rule:evenodd;clip-rule:evenodd;fill:#0E0E0E;}
	.st2{fill:#0E0E0E;}
</style>
<path class="st0" d="M57.6,28.8c0,15.9-12.9,28.8-28.8,28.8C12.9,57.6,0,44.7,0,28.8C0,12.9,12.9,0,28.8,0
	C44.7,0,57.6,12.9,57.6,28.8z"/>
<path class="st1" d="M28.8,34c2.9,0,5.2-2.3,5.2-5.2c0-2.9-2.3-5.2-5.2-5.2c-2.9,0-5.2,2.3-5.2,5.2C23.6,31.7,26,34,28.8,34z
	 M28.8,36.2c4.1,0,7.4-3.3,7.4-7.4c0-4.1-3.3-7.4-7.4-7.4c-4.1,0-7.4,3.3-7.4,7.4C21.4,32.9,24.7,36.2,28.8,36.2z"/>
<path class="st2" d="M41.4,36.8c-0.4,0-0.7-0.1-1-0.2c-0.3-0.1-0.5-0.3-0.7-0.5c-0.2-0.2-0.3-0.5-0.3-0.7h1.2
	c0.1,0.3,0.3,0.4,0.7,0.4c0.3,0,0.5-0.1,0.6-0.2c0.2-0.1,0.2-0.3,0.2-0.6v-0.4C42,34.9,41.6,35,41.1,35c-0.4,0-0.7-0.1-1-0.3
	c-0.3-0.2-0.5-0.4-0.7-0.7c-0.2-0.3-0.2-0.7-0.2-1c0-0.4,0.1-0.7,0.2-1c0.2-0.3,0.4-0.6,0.7-0.7c0.3-0.2,0.6-0.3,1-0.3
	c0.5,0,0.9,0.2,1.1,0.5v-0.4h1.2V35c0,0.4-0.1,0.7-0.3,0.9c-0.2,0.3-0.4,0.5-0.7,0.6C42.2,36.7,41.8,36.8,41.4,36.8z M41.3,34.1
	c0.3,0,0.5-0.1,0.7-0.3c0.2-0.2,0.3-0.4,0.3-0.7c0-0.3-0.1-0.5-0.3-0.7c-0.2-0.2-0.4-0.3-0.7-0.3c-0.3,0-0.5,0.1-0.7,0.3
	c-0.2,0.2-0.3,0.4-0.3,0.7c0,0.3,0.1,0.5,0.3,0.7C40.8,34,41,34.1,41.3,34.1z"/>
<path class="st2" d="M45.5,35.1c-0.4,0-0.7-0.1-1-0.3c-0.3-0.2-0.5-0.4-0.7-0.7c-0.2-0.3-0.2-0.7-0.2-1.1c0-0.4,0.1-0.8,0.2-1.1
	c0.2-0.3,0.4-0.6,0.7-0.7c0.3-0.2,0.6-0.3,1-0.3c0.5,0,0.9,0.2,1.1,0.5v-0.4h1.2v4h-1.2v-0.4C46.4,35,46.1,35.1,45.5,35.1z
	 M45.7,34.1c0.3,0,0.5-0.1,0.7-0.3c0.2-0.2,0.3-0.5,0.3-0.8c0-0.3-0.1-0.6-0.3-0.7C46.3,32.1,46,32,45.7,32c-0.3,0-0.5,0.1-0.7,0.3
	c-0.2,0.2-0.3,0.4-0.3,0.7c0,0.3,0.1,0.6,0.3,0.8C45.2,34,45.5,34.1,45.7,34.1z"/>
<path class="st2" d="M48.2,31.1h1.2v0.4c0.1-0.2,0.3-0.3,0.4-0.4C50,31,50.2,31,50.4,31c0.2,0,0.5,0,0.7,0.1
	c0.2,0.1,0.4,0.2,0.5,0.4c0.1-0.2,0.3-0.3,0.5-0.4c0.2-0.1,0.5-0.1,0.8-0.1c0.3,0,0.6,0.1,0.8,0.2c0.2,0.1,0.4,0.3,0.5,0.6
	c0.1,0.3,0.2,0.6,0.2,0.9v2.3h-1.2V33c0-0.3-0.1-0.5-0.2-0.7C53,32.1,52.8,32,52.6,32c-0.2,0-0.3,0.1-0.5,0.2
	c-0.1,0.1-0.2,0.4-0.2,0.6v2.1h-1.2V33c0-0.3-0.1-0.5-0.2-0.7c-0.1-0.2-0.3-0.2-0.5-0.2c-0.2,0-0.3,0.1-0.5,0.2
	c-0.1,0.1-0.2,0.4-0.2,0.6v2.1h-1.2V31.1z"/>
<path class="st0" d="M63.1,33.6c-0.1,0.5-0.3,0.8-0.7,1.1c-0.4,0.3-0.8,0.4-1.3,0.4c-0.4,0-0.8-0.1-1.1-0.3
	c-0.3-0.2-0.6-0.4-0.7-0.7S59,33.5,59,33.1c0-0.4,0.1-0.8,0.3-1.1c0.2-0.3,0.4-0.6,0.7-0.7c0.3-0.2,0.7-0.3,1.1-0.3
	c0.3,0,0.6,0.1,0.9,0.2c0.3,0.1,0.5,0.3,0.7,0.5c0.2,0.2,0.3,0.5,0.3,0.8h-1.2c0-0.1-0.1-0.2-0.3-0.3c-0.1-0.1-0.3-0.1-0.5-0.1
	c-0.3,0-0.5,0.1-0.7,0.3c-0.2,0.2-0.2,0.4-0.2,0.7c0,0.3,0.1,0.5,0.2,0.7c0.2,0.2,0.4,0.3,0.7,0.3c0.2,0,0.3,0,0.5-0.1
	c0.1-0.1,0.2-0.2,0.3-0.3H63.1z"/>
<path class="st0" d="M65.1,31c0.4,0,0.8,0.1,1.1,0.3c0.3,0.2,0.6,0.4,0.7,0.7c0.2,0.3,0.3,0.7,0.3,1.1c0,0.4-0.1,0.8-0.3,1.1
	s-0.4,0.6-0.7,0.7c-0.3,0.2-0.7,0.3-1.1,0.3c-0.4,0-0.8-0.1-1.1-0.3c-0.3-0.2-0.6-0.4-0.7-0.7S63,33.5,63,33.1
	c0-0.4,0.1-0.8,0.3-1.1c0.2-0.3,0.4-0.6,0.7-0.7C64.3,31.1,64.7,31,65.1,31z M65.1,32c-0.3,0-0.5,0.1-0.7,0.3
	c-0.2,0.2-0.3,0.4-0.3,0.7c0,0.3,0.1,0.6,0.3,0.8c0.2,0.2,0.4,0.3,0.7,0.3c0.3,0,0.5-0.1,0.7-0.3c0.2-0.2,0.3-0.5,0.3-0.8
	c0-0.3-0.1-0.6-0.3-0.7C65.6,32.1,65.4,32,65.1,32z"/>
<path class="st0" d="M67.3,31.1h1.2v0.4c0.2-0.3,0.6-0.5,1.1-0.5c0.2,0,0.4,0,0.5,0.1l0,1.1c-0.2-0.1-0.4-0.1-0.6-0.1
	c-0.3,0-0.6,0.1-0.8,0.3c-0.2,0.2-0.3,0.4-0.3,0.7v2h-1.2V31.1z"/>
<path class="st0" d="M70.2,31.1h1.2v0.4c0.2-0.3,0.6-0.5,1.1-0.5c0.4,0,0.7,0.1,1,0.3c0.3,0.2,0.5,0.4,0.7,0.7
	c0.2,0.3,0.2,0.7,0.2,1.1c0,0.4-0.1,0.8-0.2,1.1c-0.2,0.3-0.4,0.6-0.7,0.7c-0.3,0.2-0.6,0.3-1,0.3c-0.5,0-0.9-0.2-1.1-0.5v2.1h-1.2
	V31.1z M72.4,34.1c0.3,0,0.5-0.1,0.7-0.3c0.2-0.2,0.3-0.5,0.3-0.8c0-0.3-0.1-0.6-0.3-0.7c-0.2-0.2-0.4-0.3-0.7-0.3
	c-0.3,0-0.5,0.1-0.7,0.3c-0.2,0.2-0.3,0.4-0.3,0.7c0,0.3,0.1,0.6,0.3,0.8C71.8,34,72.1,34.1,72.4,34.1z"/>
<path class="st0" d="M76.5,31c0.4,0,0.8,0.1,1.1,0.3c0.3,0.2,0.6,0.4,0.7,0.7c0.2,0.3,0.3,0.7,0.3,1.1c0,0.4-0.1,0.8-0.3,1.1
	s-0.4,0.6-0.7,0.7c-0.3,0.2-0.7,0.3-1.1,0.3c-0.4,0-0.8-0.1-1.1-0.3c-0.3-0.2-0.6-0.4-0.7-0.7s-0.3-0.7-0.3-1.1
	c0-0.4,0.1-0.8,0.3-1.1c0.2-0.3,0.4-0.6,0.7-0.7C75.8,31.1,76.1,31,76.5,31z M76.5,32c-0.3,0-0.5,0.1-0.7,0.3
	c-0.2,0.2-0.3,0.4-0.3,0.7c0,0.3,0.1,0.6,0.3,0.8c0.2,0.2,0.4,0.3,0.7,0.3c0.3,0,0.5-0.1,0.7-0.3c0.2-0.2,0.3-0.5,0.3-0.8
	c0-0.3-0.1-0.6-0.3-0.7C77.1,32.1,76.8,32,76.5,32z"/>
<path class="st0" d="M78.8,31.1H80v0.4c0.2-0.3,0.6-0.5,1.1-0.5c0.2,0,0.4,0,0.5,0.1l0,1.1c-0.2-0.1-0.4-0.1-0.6-0.1
	c-0.3,0-0.6,0.1-0.8,0.3C80.1,32.5,80,32.7,80,33v2h-1.2V31.1z"/>
<path class="st0" d="M83.3,35.1c-0.4,0-0.7-0.1-1-0.3c-0.3-0.2-0.5-0.4-0.7-0.7s-0.2-0.7-0.2-1.1c0-0.4,0.1-0.8,0.2-1.1
	c0.2-0.3,0.4-0.6,0.7-0.7c0.3-0.2,0.6-0.3,1-0.3c0.5,0,0.9,0.2,1.1,0.5v-0.4h1.2v4h-1.2v-0.4C84.2,35,83.8,35.1,83.3,35.1z
	 M83.5,34.1c0.3,0,0.5-0.1,0.7-0.3c0.2-0.2,0.3-0.5,0.3-0.8c0-0.3-0.1-0.6-0.3-0.7C84,32.1,83.7,32,83.5,32c-0.3,0-0.5,0.1-0.7,0.3
	c-0.2,0.2-0.3,0.4-0.3,0.7c0,0.3,0.1,0.6,0.3,0.8C82.9,34,83.2,34.1,83.5,34.1z"/>
<path class="st0" d="M88.4,32.1h-0.8v2.9h-1.2v-2.9h-0.8v-1h0.8v-1.2h1.2v1.2h0.8V32.1z"/>
<path class="st0" d="M89,29.2c0.2,0,0.4,0.1,0.5,0.2c0.1,0.1,0.2,0.3,0.2,0.5c0,0.2-0.1,0.4-0.2,0.5c-0.1,0.1-0.3,0.2-0.5,0.2
	c-0.2,0-0.4-0.1-0.5-0.2c-0.1-0.1-0.2-0.3-0.2-0.5c0-0.2,0.1-0.4,0.2-0.5C88.6,29.3,88.8,29.2,89,29.2z M89.6,35.1h-1.2v-4h1.2V35.1
	z"/>
<path class="st0" d="M91.9,31c0.4,0,0.8,0.1,1.1,0.3c0.3,0.2,0.6,0.4,0.7,0.7c0.2,0.3,0.3,0.7,0.3,1.1c0,0.4-0.1,0.8-0.3,1.1
	c-0.2,0.3-0.4,0.6-0.7,0.7c-0.3,0.2-0.7,0.3-1.1,0.3c-0.4,0-0.8-0.1-1.1-0.3c-0.3-0.2-0.6-0.4-0.7-0.7s-0.3-0.7-0.3-1.1
	c0-0.4,0.1-0.8,0.3-1.1c0.2-0.3,0.4-0.6,0.7-0.7C91.1,31.1,91.5,31,91.9,31z M91.9,32c-0.3,0-0.5,0.1-0.7,0.3
	c-0.2,0.2-0.3,0.4-0.3,0.7c0,0.3,0.1,0.6,0.3,0.8c0.2,0.2,0.4,0.3,0.7,0.3c0.3,0,0.5-0.1,0.7-0.3c0.2-0.2,0.3-0.5,0.3-0.8
	c0-0.3-0.1-0.6-0.3-0.7C92.4,32.1,92.2,32,91.9,32z"/>
<path class="st0" d="M94.1,31.1h1.2v0.4c0.2-0.3,0.6-0.5,1.1-0.5c0.3,0,0.6,0.1,0.8,0.2c0.2,0.1,0.4,0.3,0.5,0.6
	c0.1,0.3,0.2,0.6,0.2,0.9v2.3h-1.2V33c0-0.3-0.1-0.5-0.2-0.7c-0.1-0.2-0.3-0.2-0.5-0.2c-0.2,0-0.4,0.1-0.6,0.3
	c-0.1,0.2-0.2,0.4-0.2,0.7v2h-1.2V31.1z"/>
</svg>
