<?xml version="1.0" encoding="utf-8"?>
<!-- Generator: Adobe Illustrator 26.1.0, SVG Export Plug-In . SVG Version: 6.00 Build 0)  -->
<svg version="1.1" id="레이어_1" xmlns="http://www.w3.org/2000/svg" xmlns:xlink="http://www.w3.org/1999/xlink" x="0px"
	 y="0px" viewBox="0 0 344 312" style="enable-background:new 0 0 344 312;" xml:space="preserve">
<style type="text/css">
	.st3{fill:none;stroke:#FFFFFF;stroke-width:3;stroke-linecap:round;}
	.st4{fill:none;}
</style>
<path class="st3" d="M117,172.3c-3.8-2.1-8-3.1-12.3-3.9c-3.4-0.7-6.6-1.8-10-2.5c-3.6-0.8-7.8-0.2-11.5-0.2
	c-5.6,0-10.3,1.3-15.7,2.6c-7.7,1.9-15.3,3.8-22.9,6c-3.7,1-7,3.1-10.7,4.1c-4.4,1.2-13.2,4.2-14.6,9c-1.1,4-1.1,8.6-0.6,12.7
	c0.5,4.1,3.2,7.8,3.5,11.9c0.3,3.2,0.7,6.5,2.1,9.3c1.3,2.6,2.3,4.7,4.1,7c1.8,2.3,4.4,4.4,6.5,6.5c2.3,2.3,4.7,3.7,7.7,4.9
	c3.3,1.3,7.1,2.2,10.6,2.2c4.3,0,8.3-0.7,12.5-0.9c4.5-0.3,9.1-1.9,13.6-2.7c2.4-0.4,5.2-0.4,7.5-1.3c2.5-1,5.4-1.2,7.6-2.7
	c1.4-1,2.5-2.5,3.9-3.6c1.4-1.2,3.2-2.3,4.1-3.9c1.8-3.1,4.5-6.2,7.2-8.6c2-1.8,4.4-5.3,5.2-7.8c1.4-4.7,4.5-8.8,5.6-13.7
	c0.6-2.6,2.5-6.4,4.9-7.8c3.3-2,6.9-2.4,10.6-3.1c1.9-0.3,3.8-0.7,5.7-0.3c2.1,0.4,3.7,2.6,5.1,4.1c1.9,1.9,3.2,4.1,4.9,6.2
	c1.8,2.1,3.5,4,5.1,6.3c1.6,2.5,3,5,4.8,7.4c1.9,2.6,3.8,4.8,6.1,7.2c1.6,1.6,3,3.2,5.2,4c2.7,1,5.4,1.8,8.2,2.5
	c1.6,0.4,3.2,0.8,4.7,1.4c1.4,0.5,2.9,0.3,4.4,0.5c3.9,0.4,7.9,0.8,11.8,0c3.6-0.8,7.6-0.2,11.3-0.7c1.6-0.2,2.9-0.8,4.5-1.2
	c3.2-0.9,6.2-2.4,9.4-3.3c4.5-1.3,9.5-3,13-6.3c2.5-2.4,5.8-3.8,8.4-6.1c3.3-2.8,7.7-4.3,10.8-7.4c1.4-1.4,2.9-2.6,4.3-4
	c1.8-1.8,4.1-2.7,6.4-3.8c3.6-1.7,6-5.8,8.4-8.8c1.9-2.3,4.3-5,5.2-7.9c1-3,2.8-5.4,2.8-8.7c0-2.6,0-5.2,0-7.8
	c0-3.7-0.5-11.3-5.3-12.1c-1.8-0.3-3.7-0.7-5.5-1.2c-3.8-0.9-8-0.5-11.9-0.9c-3.6-0.4-7,0.3-10.6,0.5c-2.8,0.2-5.5,0.2-8.3,0.2
	c-2.2,0-4.3,0.6-6.5,0.6c-1.7,0-3.2,0.3-4.8,0.5c-2.1,0.2-4.2,0.1-6.3,0.2c-2.1,0-4.1,0.6-6.3,0.6c-3.3,0-6.7-0.2-10,0.1
	c-1.7,0.1-3.3,0.5-5,0.6c-6.2,0.2-12.3,1.8-18.3,3.3c-3.3,0.8-6.4,2.7-9.6,3.3c-2.7,0.5-5.2,1.5-7.9,1.9c-3.4,0.6-6,1.8-8.9,3.6
	c-2.6,1.6-5,3.1-7.1,5.2c-1.3,1.3-2.5,2.7-4.5,2.7c-6.4,0-12.9-1.7-19.2,0.2c-2.7,0.8-5.6,1.2-8.4,2c-1.7,0.5-2.9,1.3-4.8,1.3"/>
<path class="st3" d="M286.8,151.5c11.6,8.1,23.2,16.2,34.1,25.1c2.8,2.3,5.2,4.3,7.8,6.9c1.9,1.9,4,3.7,5.4,6.1
	c0.7,1.2,1.3,3.5,2.5,4.1"/>
<path class="st3" d="M286.8,166.7c15.7,8,33.4,13.7,45.1,27.7c1,1.2,2.3,2.1,3.3,3.4c1.6,2.3,0.7,1,1.8-0.4c1-1.2,0-3.6,0-5.1"/>
<path class="st4" d="M325.9,139.8c-3-3.9-5.9-7.3-9.9-9.7c5.3,6,10.4,12.3,14.9,18.9c0.6,0.9-0.4-1.9-0.6-2.2
	C329.1,144.2,327.7,142.1,325.9,139.8z"/>
<path class="st3" d="M33.9,173.4c1.4-4.3,3.2-8.4,4.6-12.8c1.4-4.2,2.3-8.8,4.8-12.6c2-3,3.6-6,4.8-9.3c1.3-3.4,2.1-6.5,4.8-8.9
	c4.1-3.7,7.6-8.3,11.6-12.2c4.4-4.4,10.5-7.1,16.3-9c11-3.6,22.2-3.9,33.3-6.4c11.5-2.5,22.7-6.4,34.5-8c5.4-0.7,10.8-1.1,16-2.5
	c6.9-1.8,13.9-3.8,21.1-3.8c6.2,0,12.4,1.3,18.6,1.8c4.1,0.3,8.5-0.3,12.5,0.8c10.5,2.9,21.3,4.5,31.6,8c6.6,2.2,13.5,4,19.9,6.6
	c6.6,2.7,12.4,7.1,18.8,10.3c4.1,2.1,8.7,3.2,12.6,5.4c4.5,2.5,8.4,5.5,13.3,7.6c5.7,2.6,9.1,6.5,12.9,11.3c1.8,2.3,3.2,4.4,4.4,7
	c0.1,0.3,1.2,3.1,0.6,2.2c-4.9-7.2-10.5-14.2-16.4-20.6c-12.8-14-26.6-27.2-40.9-39.6c-7.3-6.4-14.8-13.3-23.5-17.6
	c-6.2-3.1-12.7-5.7-18.9-9c-5.3-2.8-10.6-5.9-16.3-7.8c-8.9-3-18.2-5.1-27.4-7.3c-10.4-2.5-19.7-7.2-30.5-7.6
	c-7.7-0.3-15.4,0-23.1,0c-8.6,0-17.2-0.6-25.8-0.4c-6.4,0.1-12.8,1-19.2,1.4c-9.5,0.7-19.9,2.9-28.6,6.4
	c-7.1,2.8-11.2,8.4-17.5,12.2c-5.4,3.3-10.2,7.6-15.5,11.2c-6.2,4.2-11.8,11.6-15.2,18.1c-2.2,4.2-3.7,8.8-5.5,13.2
	c-1.6,3.9-1.8,7.5-2.5,11.6c-0.5,3-2.1,5.9-2.2,9c-0.1,4.1,0,8.1,0,12.2c0,4.5-0.3,9.1,0.5,13.5c0.8,4.7,3.1,9.4,4.7,13.9
	c1.3,3.8,4.2,6.9,6.6,10.1c2.6,3.6,7.1,7.1,11.8,7.1c2.7,0,4.3-3.6,7.4-3.6"/>
<path class="st3" d="M329.8,146.5c-2.3-6.8-4.3-13.6-5.9-20.7c-1.7-7.6-2.7-15.4-4.9-22.9c-1.3-4.3-3-8.5-4.5-12.7
	c-2.2-6.3-3.4-12.8-5.4-19.2c-2.2-7.2-6.1-13.9-8.9-21c-2.1-5.4-3.8-10.1-7.9-14.1c-4-3.8-7.4-7.1-12.8-8.9
	c-6.8-2.4-13.1-4.8-19.5-7.9c-6.5-3.2-13.4-5.6-20-8.7c-11-5.2-23.6-5.9-35.6-6.4c-9-0.4-18-1.4-27.1-1.7c-3.3-0.1-7.2-0.5-10.6,0.2
	c-11.2,2.5-22.4,6.3-33.4,9.6c-5,1.5-11.2,2.1-15.6,4.9c-5.6,3.5-11.2,6.9-15.3,12.1c-2,2.5-4.6,5.8-7.3,7.6"/>
<path class="st3" d="M328.5,150.6c2.3,11.1,8.4,21.2,10.2,32.4c0.5,3.1,1.1,6.1,1.4,9.2c0.2,2.4-0.4,4.8-0.4,7.2"/>
<path class="st3" d="M302,288.2c0,3.4-0.4,6.3-1.2,9.7c-1.7,7-3.1,14.7-6.8,21c-1.9,3.3-3.6,7-5.8,10.2c-3,4.2-8.1,9.2-12.7,11.5
	c-11,5.5-23.2,9.1-35.2,11.8c-6.2,1.4-12.6,3.3-18.9,3.8c-6.9,0.6-13.7,0.4-20.6,1.2c-8,0.9-15.6,1.4-23.7,0.8
	c-6.9-0.5-13.8-0.9-20.8-0.9c-10.3,0-20.1-3.9-30.3-5c-5.1-0.6-10.6-0.3-15.5-1.7c-1.7-0.5-3.1-1.4-4.8-1.9c-3.2-1-6.4-1.5-9.6-2.7
	c-6.8-2.6-14.3-4.4-20-9c-5.3-4.3-8.8-9.9-13.4-14.8c-2.1-2.3-3.7-4.9-5.8-7.2c-3.1-3.3-4.2-7.9-6.2-11.9
	c-2.9-5.9-6.3-11.9-7.9-18.4c-1.2-4.9-0.7-9.8-1.6-14.6c-0.6-3.3-0.7-8.1,0-11.4c1.4-6.3,5.6-12.3,5.6-18.9"/>
<path class="st3" d="M107.4,141.1c-6.3,0.5-11.3,1.7-16.7,4.8c-3.7,2.2-6.6,5.2-10.6,7c-4.4,2-9.3,4.5-13.3,7.2
	c-1.8,1.2-4.2,2.4-5.6,3.8"/>
<path class="st3" d="M191.7,126.3c8.1,0.7,15.7,1.6,23.8,0.2c2.1-0.4,4-0.6,6.1-0.6c2.7,0,5.2,0,7.8,0.9c1.7,0.6,3.3,1.3,5.1,1.3
	c2.5,0,5.2,1.3,7.7,1.8c2,0.4,4.1,0.7,6.1,1.3c3,1.1,5.4,3.3,8.5,4"/>
<path class="st3" d="M133.4,241.6c-1.2-3.7-1.8-6.3-4.8-9.2c-1.3-1.3-4.5-1.1-6.2-1.1c-2.5,0-4.3,0.2-4.3,3.1c0,2.2,0,3.6,0.9,5.4"
	/>
<path class="st3" d="M144.2,235.8c0-2-0.4-3.9,1-5.5c1-1.2,2.8-3.5,4.5-3.5c2.9,0,7.3,1.9,8.9,4.5"/>
<path class="st3" d="M169.3,233.5c1.1-2.8,1.1-6,0.9-9c-0.3-3.3-2.4-4.4-5.4-5.4"/>
<path class="st3" d="M106.1,225c-1.1,4-1.7,4.9,0.7,8.1c1.6,2.1,3.3,3.5,5.1,5.3"/>
<path class="st3" d="M98.9,270.3c15.8,0,31.2-3.3,46.8-5.3c9.1-1.1,17.9-1.4,27.1-1.4c3.1,0,6.2,0.1,9.2,0c0.8,0,0.4-0.3,0.7-0.7
	c1-1.1,4.2-1.5,5.6-1.7c3.4-0.7,7.4-1.2,10.9-1.2"/>
<path class="st3" d="M111.6,182.1c-5.2-4-12.1-5.6-18.5-4.6c-2.2,0.3-4.3,0.6-6.5,0.7c-2.1,0.1-4.3-0.1-6.4,0.3
	c-3.2,0.6-6.4-0.2-9.6,0.9c-2.3,0.8-4.5,1.1-6.9,1.3c-2.3,0.1-4.4,0.9-6.7,1.4c-3.7,0.8-7.5,1.5-11.2,1.5c-1.7,0-3,0.8-4.3,1.9
	c-1.5,1.3-3.3,2.3-4.8,3.7c-1.1,1-2.3,2.2-3.2,3.5c-0.9,1.4-2.4,2.4-3.1,3.9c-0.7,1.5-1.2,2.7-1,4.4c0.2,2.1,1.5,3.6,2.6,5.3
	c1.3,1.8,2.6,3.9,4.1,5.6c1.4,1.5,2.8,3,3.9,4.7c0.8,1.4,1.6,2.9,2.6,4.2c1.2,1.6,2.1,3.4,3.6,4.7c2.5,2.2,4.4,4.9,7.5,6.3
	c2.3,1,4.7,1,7.2,1c1.2,0,2.4,0,3.6,0c1.2,0,2.1-0.4,3.2-0.7c0.9-0.2,1.8-0.2,2.6-0.8c1-0.7,1.6-1.7,2.6-2.3
	c0.9-0.5,1.9-0.8,2.8-1.3c0.8-0.5,1.5-1.2,2.3-1.6c2.9-1.6,5.8-2.1,9-2.8c2.1-0.4,3.6-1.8,5.4-2.9c1.7-1.1,3.2-2.4,4.5-3.9
	c1.7-2,3.6-3.7,5.2-5.7c0.9-1.1,1.9-2.2,2.6-3.5c0.7-1.3,1.1-2.7,1.9-3.9c1.2-2,2.1-3.8,2.9-6c1-2.6,0.7-5.5,1.4-8.3
	c0.3-1.1,0.7-2,0.7-3.2c0-1,0.2-1.9,0.2-2.8"/>
<path class="st3" d="M271.7,154.1c-5.5-0.3-10.6-1.7-16.2-0.4c-2.3,0.5-4.2,1-6.6,1.3c-2.9,0.3-5.8,1.1-8.7,1.4
	c-3,0.3-6,0.1-8.9,0.5c-3.4,0.4-6.5,2.2-9.9,2.6c-4.6,0.5-8.7,2.3-13.1,3.2c-5.1,1-10.3,1.2-15.4,2.3c-3.1,0.6-6.3,1.1-9.5,1.4
	c-2.2,0.2-4.3,0.2-6.5,0.6c-2.1,0.4-4.3,1.6-6.2,2.7c-2.9,1.6-4.9,3.9-6.8,6.5c-2.6,3.7,0.8,8.4,3.3,11.2c1.5,1.7,2.8,3.7,4.1,5.6
	c1,1.5,2.4,2.8,3.5,4.2c1.1,1.4,2.5,2.7,3.8,4c1.5,1.5,3.4,2.8,4.9,4.4c1.5,1.5,3.3,2.4,4.8,3.9c0.7,0.7,1.3,1.5,2.2,2
	c1.1,0.7,2.3,1.2,3.3,2c0.9,0.7,2.2,1.3,3.2,1.7c0.6,0.2,1.3,0.2,2,0.3c1.6,0.2,3.1,0.8,4.7,1c1.5,0.2,3.1-0.1,4.6-0.2
	c1.1,0,2.1-0.4,3.2-0.7c1.3-0.4,2.7-0.3,4.1-0.5c3.3-0.3,6.3-1.5,9.4-2.4c4.2-1.3,8-3,11.8-5.1c2.2-1.2,4.3-2.8,5.8-4.8
	c1.2-1.6,2.2-3.2,3.2-4.9c1.4-2.4,3.7-4.2,5.7-6.1c1.5-1.4,3.3-2.6,4.6-4.2c1.1-1.3,2-2.9,3-4.3c2.5-3.2,6.3-6.2,7-10.4
	c0.4-2.6,0.9-5.5,2.1-7.9c0.6-1.2,1.3-2.8,1.5-4.1c0.3-1.6,0.2-3.3-0.3-4.9c-0.2-0.5-0.9-1.5-1.4-1.5"/>
<path class="st3" d="M341.8,201.9c2.5-2.4,5.3-4.4,8.3-6.1c2.7-1.5,5-0.7,7.6,0.7c5,2.7,8.7,7.9,12.7,11.8c1.4,1.4,1.7,2.4,2.4,4.3
	c0.8,2.2,1.6,4.4,2.1,6.7c0.5,2.5-0.2,4.5-0.9,6.9c-2.2,7.4-4.6,15.5-11.1,20.4c-2.9,2.2-5.5,4.3-8.6,6.3c-1.2,0.7-1.9,2.1-2.9,3
	c-1.3,1.3-2.9,2.5-4.3,3.7c-2.9,2.3-6.1,3.7-8.7,6.2c-2.8,2.6-6.4-1.3-8.5-3.1c-1.1-0.9-4.2-6.1-5.2-6c-1.3,0-3.5,1.4-3.9,2.7
	c-0.6,1.7-1.3,2.8-1.4,4.6c-0.1,2.4-1,4-2.2,6c-1.2,1.9-3.1,3.2-4.4,5c-0.7,1-1.2,2-2,2.9c-1.5,1.8-3.4,3.4-4.6,5.3
	c-0.9,1.3-2.4,2.2-2.6,4c-0.2,1.9-1.2,3.9-1.4,5.9"/>
<path class="st3" d="M341.4,218.8c1.6-3.9,5.2-7.3,9.6-7.3c2.6,0,3.9,0.4,5.8,2.2c2.6,2.6,5.8,4.9,6,8.8c0.1,1.8-0.7,3.3-1.4,4.9
	c-1.2,2.7-2.1,5.3-4,7.5c-3.2,3.8-7.3,7-11,10.3c-2.4,2.1-5,2.2-7.5,4c-1.8,1.3-3.4,2-5.5,1.2"/>
<path class="st3" d="M349,223.3c0.2,1.5,1.4,5.2-0.5,6.2c-0.9,0.5-1.6,1.2-2.3,2c-1,1.1-1.6,1.8-3.1,1.8"/>
<path class="st3" d="M335.9,205.3c-0.2,3.4-0.1,7.9-1.9,11.1c-0.9,1.5-2.3,3.1-3.5,4.4c-1.2,1.3-1.5,3.3-2.7,4.7
	c-1.1,1.2-1.5,2.4-2.2,3.9c-1.7,3.2-4.8,7-4.8,10.7c0,2,0,4,0,6"/>
<path class="st3" d="M289.6,117.2c3.6,2.7,7.5,5.6,10.5,8.9c2.5,2.7,3.9,5.4,5.6,8.6c1.5,2.9,3.9,4.9,5.2,8c1.2,2.8,2.7,5.6,3.4,8.5
	c1,3.8,1.2,7.7,0.2,11.6c-0.5,2.2-1.1,4.7-1.1,6.9"/>
<path class="st3" d="M312.1,181.5c-1.1,2.9-2.8,5.1-4.4,7.7c-2.8,4.5-4.5,9.6-5.9,14.6c-1.7,5.8-3.2,11.6-4.6,17.4
	c-0.8,3.2-1.6,6.5-2.7,9.6c-0.5,1.5-1.3,2.9-1.6,4.4c-0.7,3.7-0.5,8,0.4,11.5c0.3,1.3,1.1,3.1,2.2,4c1.6,1.3,2.9,1.1,4.9,1.3
	c2.9,0.3,6.1,0.8,8.9,1.7c2.1,0.7,6.6,5.7,8.1,2.7c3.5-7.1,4.6-14.9,4.6-22.6"/>
</svg>
